G04 EAGLE Gerber RS-274X export*
G75*
%MOMM*%
%FSLAX34Y34*%
%LPD*%
%INSoldermask Top*%
%IPPOS*%
%AMOC8*
5,1,8,0,0,1.08239X$1,22.5*%
G01*
%ADD10R,1.503200X1.703200*%
%ADD11R,1.703200X1.503200*%
%ADD12R,1.403200X0.503200*%
%ADD13P,1.803519X8X292.500000*%
%ADD14P,1.803519X8X202.500000*%
%ADD15P,1.803519X8X112.500000*%
%ADD16C,2.003200*%
%ADD17R,3.703200X1.903200*%
%ADD18C,1.703200*%
%ADD19R,1.903200X3.703200*%
%ADD20R,1.603200X1.203200*%
%ADD21R,2.403200X0.803200*%
%ADD22R,1.703200X0.803200*%
%ADD23C,3.530600*%


D10*
X549300Y231140D03*
X568300Y231140D03*
X553060Y25400D03*
X534060Y25400D03*
D11*
X703580Y99720D03*
X703580Y118720D03*
X652780Y177140D03*
X652780Y158140D03*
X640080Y39980D03*
X640080Y20980D03*
D12*
X595160Y118980D03*
X595160Y112480D03*
X595160Y105980D03*
X595160Y99480D03*
X552910Y99480D03*
X552910Y105980D03*
X552910Y112480D03*
X552910Y118980D03*
D13*
X43180Y243840D03*
X43180Y218440D03*
D14*
X431800Y160020D03*
X406400Y160020D03*
D15*
X43180Y281940D03*
X43180Y307340D03*
D11*
X500380Y227940D03*
X500380Y208940D03*
X586740Y184760D03*
X586740Y165760D03*
D10*
X634340Y220980D03*
X615340Y220980D03*
D11*
X703580Y177140D03*
X703580Y158140D03*
D10*
X497180Y58420D03*
X478180Y58420D03*
D16*
X340360Y932180D03*
X340360Y906780D03*
X340360Y779780D03*
X340360Y754380D03*
X340360Y881380D03*
X340360Y855980D03*
X340360Y805180D03*
X340360Y830580D03*
X340360Y728980D03*
X340360Y703580D03*
X340360Y678180D03*
X340360Y652780D03*
X340360Y627380D03*
X340360Y601980D03*
X340360Y576580D03*
X340360Y551180D03*
X340360Y525780D03*
X340360Y500380D03*
X340360Y474980D03*
X340360Y449580D03*
X518160Y449580D03*
X518160Y474980D03*
X518160Y500380D03*
X518160Y525780D03*
X518160Y551180D03*
X518160Y576580D03*
X518160Y601980D03*
X518160Y627380D03*
X518160Y652780D03*
X518160Y678180D03*
X518160Y703580D03*
X518160Y728980D03*
X518160Y754380D03*
X518160Y779780D03*
X518160Y805180D03*
X518160Y830580D03*
X518160Y855980D03*
X518160Y881380D03*
X518160Y906780D03*
X518160Y932180D03*
D17*
X329260Y932180D03*
X329260Y906780D03*
X329260Y881380D03*
X329260Y855980D03*
X329260Y830580D03*
X329260Y805180D03*
X329260Y779780D03*
X329260Y754380D03*
X329260Y728980D03*
X329260Y703580D03*
X329260Y678180D03*
X329260Y652780D03*
X329260Y627380D03*
X329260Y601980D03*
X329260Y576580D03*
X329260Y551180D03*
X329260Y525780D03*
X329260Y500380D03*
X329260Y474980D03*
X329260Y449580D03*
X529260Y449580D03*
X529260Y474980D03*
X529260Y500380D03*
X529260Y525780D03*
X529260Y551180D03*
X529260Y576580D03*
X529260Y601980D03*
X529260Y627380D03*
X529260Y652780D03*
X529260Y678180D03*
X529260Y703580D03*
X529260Y728980D03*
X529260Y754380D03*
X529260Y779780D03*
X529260Y805180D03*
X529260Y830580D03*
X529260Y855980D03*
X529260Y881380D03*
X529260Y906780D03*
X529260Y932180D03*
D16*
X402010Y930880D03*
X456510Y930880D03*
D18*
X405010Y900580D03*
X453510Y900580D03*
D16*
X403860Y451880D03*
X429260Y451880D03*
X454660Y451880D03*
D19*
X403860Y441630D03*
X429260Y441630D03*
X454660Y441630D03*
D20*
X56720Y167640D03*
X34720Y158140D03*
X34720Y177140D03*
D10*
X141580Y523240D03*
X122580Y523240D03*
X192380Y431800D03*
X173380Y431800D03*
D21*
X121320Y478790D03*
X173320Y478790D03*
X121320Y491490D03*
X121320Y466090D03*
X121320Y453390D03*
X173320Y491490D03*
X173320Y466090D03*
X173320Y453390D03*
D10*
X85700Y497840D03*
X66700Y497840D03*
X238100Y497840D03*
X219100Y497840D03*
D22*
X31140Y481940D03*
X31140Y462940D03*
X50140Y472440D03*
D10*
X66700Y436880D03*
X85700Y436880D03*
X85700Y467360D03*
X66700Y467360D03*
D23*
X698500Y63500D03*
X63500Y63500D03*
X63500Y889000D03*
X698500Y889000D03*
M02*
