G04 EAGLE Gerber RS-274X export*
G75*
%MOMM*%
%FSLAX34Y34*%
%LPD*%
%INBottom Copper*%
%IPPOS*%
%AMOC8*
5,1,8,0,0,1.08239X$1,22.5*%
G01*
%ADD10P,1.583577X8X292.500000*%
%ADD11P,1.583577X8X202.500000*%
%ADD12P,1.583577X8X112.500000*%
%ADD13C,1.800000*%
%ADD14C,3.327400*%

G36*
X731646Y3571D02*
X731646Y3571D01*
X731772Y3578D01*
X731818Y3591D01*
X731866Y3597D01*
X731985Y3639D01*
X732107Y3674D01*
X732149Y3698D01*
X732194Y3714D01*
X732301Y3783D01*
X732411Y3844D01*
X732457Y3884D01*
X732487Y3903D01*
X732521Y3938D01*
X732597Y4003D01*
X752917Y24323D01*
X752996Y24422D01*
X753080Y24516D01*
X753104Y24558D01*
X753134Y24596D01*
X753188Y24710D01*
X753249Y24821D01*
X753262Y24867D01*
X753283Y24911D01*
X753309Y25034D01*
X753344Y25156D01*
X753349Y25217D01*
X753356Y25252D01*
X753355Y25300D01*
X753363Y25400D01*
X753363Y944880D01*
X753352Y944980D01*
X753350Y945080D01*
X753332Y945152D01*
X753323Y945226D01*
X753290Y945321D01*
X753265Y945418D01*
X753231Y945484D01*
X753206Y945554D01*
X753151Y945639D01*
X753105Y945728D01*
X753057Y945785D01*
X753017Y945847D01*
X752945Y945917D01*
X752880Y945993D01*
X752820Y946038D01*
X752766Y946089D01*
X752680Y946141D01*
X752599Y946201D01*
X752531Y946230D01*
X752467Y946268D01*
X752371Y946299D01*
X752279Y946339D01*
X752206Y946352D01*
X752135Y946374D01*
X752035Y946382D01*
X751936Y946400D01*
X751862Y946396D01*
X751788Y946402D01*
X751688Y946387D01*
X751588Y946382D01*
X751517Y946362D01*
X751443Y946351D01*
X751350Y946314D01*
X751253Y946286D01*
X751188Y946249D01*
X751119Y946222D01*
X751037Y946165D01*
X750949Y946116D01*
X750873Y946050D01*
X750833Y946023D01*
X750809Y945997D01*
X750763Y945957D01*
X741049Y936243D01*
X529874Y936243D01*
X529724Y936226D01*
X529574Y936214D01*
X529551Y936206D01*
X529527Y936203D01*
X529385Y936153D01*
X529243Y936106D01*
X529222Y936094D01*
X529199Y936086D01*
X529073Y936004D01*
X528944Y935927D01*
X528927Y935910D01*
X528906Y935897D01*
X528802Y935789D01*
X528694Y935684D01*
X528681Y935664D01*
X528664Y935646D01*
X528587Y935517D01*
X528506Y935391D01*
X528498Y935368D01*
X528485Y935347D01*
X528440Y935204D01*
X528389Y935062D01*
X528387Y935038D01*
X528379Y935015D01*
X528367Y934866D01*
X528350Y934716D01*
X528353Y934692D01*
X528351Y934668D01*
X528374Y934519D01*
X528391Y934370D01*
X528400Y934342D01*
X528403Y934323D01*
X528420Y934279D01*
X528431Y934247D01*
X528431Y930137D01*
X526867Y926362D01*
X523978Y923473D01*
X520203Y921909D01*
X516117Y921909D01*
X512342Y923473D01*
X509453Y926362D01*
X507889Y930137D01*
X507889Y934262D01*
X507895Y934282D01*
X507941Y934425D01*
X507943Y934449D01*
X507949Y934472D01*
X507957Y934623D01*
X507969Y934772D01*
X507965Y934796D01*
X507966Y934820D01*
X507939Y934968D01*
X507917Y935117D01*
X507908Y935139D01*
X507904Y935163D01*
X507844Y935301D01*
X507788Y935441D01*
X507775Y935461D01*
X507765Y935483D01*
X507675Y935604D01*
X507589Y935727D01*
X507571Y935743D01*
X507557Y935763D01*
X507442Y935860D01*
X507331Y935960D01*
X507310Y935972D01*
X507291Y935988D01*
X507157Y936056D01*
X507026Y936129D01*
X507002Y936135D01*
X506981Y936146D01*
X506835Y936183D01*
X506690Y936224D01*
X506661Y936226D01*
X506643Y936231D01*
X506595Y936231D01*
X506446Y936243D01*
X468475Y936243D01*
X468326Y936226D01*
X468176Y936214D01*
X468153Y936206D01*
X468129Y936203D01*
X467988Y936153D01*
X467844Y936107D01*
X467824Y936094D01*
X467801Y936086D01*
X467675Y936004D01*
X467546Y935927D01*
X467528Y935910D01*
X467508Y935897D01*
X467404Y935789D01*
X467296Y935684D01*
X467283Y935664D01*
X467266Y935646D01*
X467189Y935517D01*
X467108Y935391D01*
X467100Y935368D01*
X467087Y935347D01*
X467041Y935204D01*
X466991Y935062D01*
X466988Y935038D01*
X466981Y935015D01*
X466969Y934866D01*
X466952Y934716D01*
X466955Y934692D01*
X466953Y934668D01*
X466975Y934519D01*
X466993Y934370D01*
X467002Y934342D01*
X467005Y934323D01*
X467022Y934279D01*
X467068Y934137D01*
X467511Y933068D01*
X467511Y928692D01*
X465836Y924649D01*
X462741Y921554D01*
X458698Y919879D01*
X454322Y919879D01*
X450279Y921554D01*
X447184Y924649D01*
X445509Y928692D01*
X445509Y933068D01*
X445952Y934137D01*
X445993Y934282D01*
X446039Y934425D01*
X446041Y934449D01*
X446048Y934472D01*
X446055Y934623D01*
X446067Y934772D01*
X446063Y934796D01*
X446065Y934820D01*
X446038Y934968D01*
X446015Y935117D01*
X446006Y935139D01*
X446002Y935163D01*
X445942Y935301D01*
X445887Y935441D01*
X445873Y935461D01*
X445863Y935483D01*
X445773Y935604D01*
X445688Y935727D01*
X445670Y935743D01*
X445655Y935763D01*
X445540Y935860D01*
X445429Y935960D01*
X445408Y935972D01*
X445389Y935988D01*
X445256Y936056D01*
X445124Y936129D01*
X445101Y936135D01*
X445079Y936146D01*
X444933Y936183D01*
X444789Y936224D01*
X444759Y936226D01*
X444741Y936231D01*
X444694Y936231D01*
X444545Y936243D01*
X413975Y936243D01*
X413826Y936226D01*
X413676Y936214D01*
X413653Y936206D01*
X413629Y936203D01*
X413488Y936153D01*
X413344Y936107D01*
X413324Y936094D01*
X413301Y936086D01*
X413175Y936004D01*
X413046Y935927D01*
X413028Y935910D01*
X413008Y935897D01*
X412904Y935789D01*
X412796Y935684D01*
X412783Y935664D01*
X412766Y935646D01*
X412689Y935517D01*
X412608Y935391D01*
X412600Y935368D01*
X412587Y935347D01*
X412541Y935204D01*
X412491Y935062D01*
X412488Y935038D01*
X412481Y935015D01*
X412469Y934866D01*
X412452Y934716D01*
X412455Y934692D01*
X412453Y934668D01*
X412475Y934519D01*
X412493Y934370D01*
X412502Y934342D01*
X412505Y934323D01*
X412522Y934279D01*
X412568Y934137D01*
X413011Y933068D01*
X413011Y928692D01*
X411336Y924649D01*
X408241Y921554D01*
X404198Y919879D01*
X399822Y919879D01*
X395779Y921554D01*
X392684Y924649D01*
X391009Y928692D01*
X391009Y933068D01*
X391452Y934137D01*
X391493Y934282D01*
X391539Y934425D01*
X391541Y934449D01*
X391548Y934472D01*
X391555Y934623D01*
X391567Y934772D01*
X391563Y934796D01*
X391565Y934820D01*
X391538Y934968D01*
X391515Y935117D01*
X391506Y935139D01*
X391502Y935163D01*
X391442Y935301D01*
X391387Y935441D01*
X391373Y935461D01*
X391363Y935483D01*
X391273Y935604D01*
X391188Y935727D01*
X391170Y935743D01*
X391155Y935763D01*
X391040Y935860D01*
X390929Y935960D01*
X390908Y935972D01*
X390889Y935988D01*
X390756Y936056D01*
X390624Y936129D01*
X390601Y936135D01*
X390579Y936146D01*
X390433Y936183D01*
X390289Y936224D01*
X390259Y936226D01*
X390241Y936231D01*
X390194Y936231D01*
X390045Y936243D01*
X352074Y936243D01*
X351924Y936226D01*
X351774Y936214D01*
X351751Y936206D01*
X351727Y936203D01*
X351585Y936153D01*
X351443Y936106D01*
X351422Y936094D01*
X351399Y936086D01*
X351273Y936004D01*
X351144Y935927D01*
X351127Y935910D01*
X351106Y935897D01*
X351002Y935789D01*
X350894Y935684D01*
X350881Y935664D01*
X350864Y935646D01*
X350787Y935517D01*
X350706Y935391D01*
X350698Y935368D01*
X350685Y935347D01*
X350640Y935204D01*
X350589Y935062D01*
X350587Y935038D01*
X350579Y935015D01*
X350567Y934866D01*
X350550Y934716D01*
X350553Y934692D01*
X350551Y934668D01*
X350574Y934519D01*
X350591Y934370D01*
X350600Y934342D01*
X350603Y934323D01*
X350620Y934279D01*
X350631Y934247D01*
X350631Y930137D01*
X349067Y926362D01*
X346178Y923473D01*
X342403Y921909D01*
X338317Y921909D01*
X334542Y923473D01*
X331653Y926362D01*
X330089Y930137D01*
X330089Y934262D01*
X330095Y934282D01*
X330141Y934425D01*
X330143Y934449D01*
X330149Y934472D01*
X330157Y934623D01*
X330169Y934772D01*
X330165Y934796D01*
X330166Y934820D01*
X330139Y934968D01*
X330117Y935117D01*
X330108Y935139D01*
X330104Y935163D01*
X330044Y935301D01*
X329988Y935441D01*
X329975Y935461D01*
X329965Y935483D01*
X329875Y935604D01*
X329789Y935727D01*
X329771Y935743D01*
X329757Y935763D01*
X329642Y935860D01*
X329531Y935960D01*
X329510Y935972D01*
X329491Y935988D01*
X329357Y936056D01*
X329226Y936129D01*
X329202Y936135D01*
X329181Y936146D01*
X329035Y936183D01*
X328890Y936224D01*
X328861Y936226D01*
X328843Y936231D01*
X328795Y936231D01*
X328646Y936243D01*
X60960Y936243D01*
X60834Y936229D01*
X60708Y936222D01*
X60662Y936209D01*
X60614Y936203D01*
X60495Y936161D01*
X60373Y936126D01*
X60331Y936102D01*
X60286Y936086D01*
X60179Y936017D01*
X60069Y935956D01*
X60023Y935916D01*
X59993Y935897D01*
X59959Y935862D01*
X59883Y935797D01*
X19243Y895157D01*
X19164Y895058D01*
X19080Y894964D01*
X19056Y894922D01*
X19026Y894884D01*
X18972Y894770D01*
X18911Y894659D01*
X18898Y894613D01*
X18877Y894569D01*
X18851Y894446D01*
X18816Y894324D01*
X18812Y894263D01*
X18804Y894228D01*
X18805Y894180D01*
X18797Y894080D01*
X18797Y503551D01*
X4003Y488757D01*
X3924Y488658D01*
X3840Y488564D01*
X3816Y488522D01*
X3786Y488484D01*
X3732Y488370D01*
X3671Y488259D01*
X3658Y488213D01*
X3637Y488169D01*
X3611Y488046D01*
X3576Y487924D01*
X3572Y487863D01*
X3564Y487828D01*
X3565Y487780D01*
X3557Y487680D01*
X3557Y25400D01*
X3560Y25374D01*
X3558Y25348D01*
X3580Y25201D01*
X3597Y25054D01*
X3605Y25029D01*
X3609Y25003D01*
X3664Y24865D01*
X3714Y24726D01*
X3728Y24704D01*
X3738Y24679D01*
X3823Y24558D01*
X3903Y24433D01*
X3922Y24415D01*
X3937Y24393D01*
X4047Y24294D01*
X4154Y24191D01*
X4176Y24177D01*
X4196Y24160D01*
X4326Y24088D01*
X4453Y24012D01*
X4478Y24004D01*
X4501Y23991D01*
X4644Y23951D01*
X4785Y23906D01*
X4811Y23904D01*
X4836Y23896D01*
X5080Y23877D01*
X471809Y23877D01*
X491683Y4003D01*
X491782Y3924D01*
X491876Y3840D01*
X491918Y3816D01*
X491956Y3786D01*
X492070Y3732D01*
X492181Y3671D01*
X492227Y3658D01*
X492271Y3637D01*
X492394Y3611D01*
X492516Y3576D01*
X492577Y3572D01*
X492612Y3564D01*
X492660Y3565D01*
X492760Y3557D01*
X731520Y3557D01*
X731646Y3571D01*
G37*
%LPC*%
G36*
X516117Y896509D02*
X516117Y896509D01*
X512342Y898073D01*
X509453Y900962D01*
X507889Y904737D01*
X507889Y908823D01*
X509453Y912598D01*
X512342Y915487D01*
X516117Y917051D01*
X520203Y917051D01*
X523978Y915487D01*
X526867Y912598D01*
X528431Y908823D01*
X528431Y904737D01*
X526867Y900962D01*
X523978Y898073D01*
X520203Y896509D01*
X516117Y896509D01*
G37*
%LPD*%
%LPC*%
G36*
X338317Y896509D02*
X338317Y896509D01*
X334542Y898073D01*
X331653Y900962D01*
X330089Y904737D01*
X330089Y908823D01*
X331653Y912598D01*
X334542Y915487D01*
X338317Y917051D01*
X342403Y917051D01*
X346178Y915487D01*
X349067Y912598D01*
X350631Y908823D01*
X350631Y904737D01*
X349067Y900962D01*
X346178Y898073D01*
X342403Y896509D01*
X338317Y896509D01*
G37*
%LPD*%
%LPC*%
G36*
X338317Y667909D02*
X338317Y667909D01*
X334542Y669473D01*
X331653Y672362D01*
X330089Y676137D01*
X330089Y680223D01*
X331653Y683998D01*
X334542Y686887D01*
X338317Y688451D01*
X342403Y688451D01*
X346178Y686887D01*
X349067Y683998D01*
X350631Y680223D01*
X350631Y676137D01*
X349067Y672362D01*
X346178Y669473D01*
X342403Y667909D01*
X338317Y667909D01*
G37*
%LPD*%
%LPC*%
G36*
X516117Y642509D02*
X516117Y642509D01*
X512342Y644073D01*
X509453Y646962D01*
X507889Y650737D01*
X507889Y654823D01*
X509453Y658598D01*
X512342Y661487D01*
X516117Y663051D01*
X520203Y663051D01*
X523978Y661487D01*
X526867Y658598D01*
X528431Y654823D01*
X528431Y650737D01*
X526867Y646962D01*
X523978Y644073D01*
X520203Y642509D01*
X516117Y642509D01*
G37*
%LPD*%
%LPC*%
G36*
X338317Y642509D02*
X338317Y642509D01*
X334542Y644073D01*
X331653Y646962D01*
X330089Y650737D01*
X330089Y654823D01*
X331653Y658598D01*
X334542Y661487D01*
X338317Y663051D01*
X342403Y663051D01*
X346178Y661487D01*
X349067Y658598D01*
X350631Y654823D01*
X350631Y650737D01*
X349067Y646962D01*
X346178Y644073D01*
X342403Y642509D01*
X338317Y642509D01*
G37*
%LPD*%
%LPC*%
G36*
X516117Y439309D02*
X516117Y439309D01*
X512342Y440873D01*
X509453Y443762D01*
X507889Y447537D01*
X507889Y451623D01*
X509453Y455398D01*
X512342Y458287D01*
X516117Y459851D01*
X520203Y459851D01*
X523978Y458287D01*
X526867Y455398D01*
X528431Y451623D01*
X528431Y447537D01*
X526867Y443762D01*
X523978Y440873D01*
X520203Y439309D01*
X516117Y439309D01*
G37*
%LPD*%
%LPC*%
G36*
X516117Y566309D02*
X516117Y566309D01*
X512342Y567873D01*
X509453Y570762D01*
X507889Y574537D01*
X507889Y578623D01*
X509453Y582398D01*
X512342Y585287D01*
X516117Y586851D01*
X520203Y586851D01*
X523978Y585287D01*
X526867Y582398D01*
X528431Y578623D01*
X528431Y574537D01*
X526867Y570762D01*
X523978Y567873D01*
X520203Y566309D01*
X516117Y566309D01*
G37*
%LPD*%
%LPC*%
G36*
X516117Y591709D02*
X516117Y591709D01*
X512342Y593273D01*
X509453Y596162D01*
X507889Y599937D01*
X507889Y604023D01*
X509453Y607798D01*
X512342Y610687D01*
X516117Y612251D01*
X520203Y612251D01*
X523978Y610687D01*
X526867Y607798D01*
X528431Y604023D01*
X528431Y599937D01*
X526867Y596162D01*
X523978Y593273D01*
X520203Y591709D01*
X516117Y591709D01*
G37*
%LPD*%
%LPC*%
G36*
X338317Y794909D02*
X338317Y794909D01*
X334542Y796473D01*
X331653Y799362D01*
X330089Y803137D01*
X330089Y807223D01*
X331653Y810998D01*
X334542Y813887D01*
X338317Y815451D01*
X342403Y815451D01*
X346178Y813887D01*
X349067Y810998D01*
X350631Y807223D01*
X350631Y803137D01*
X349067Y799362D01*
X346178Y796473D01*
X342403Y794909D01*
X338317Y794909D01*
G37*
%LPD*%
%LPC*%
G36*
X338317Y591709D02*
X338317Y591709D01*
X334542Y593273D01*
X331653Y596162D01*
X330089Y599937D01*
X330089Y604023D01*
X331653Y607798D01*
X334542Y610687D01*
X338317Y612251D01*
X342403Y612251D01*
X346178Y610687D01*
X349067Y607798D01*
X350631Y604023D01*
X350631Y599937D01*
X349067Y596162D01*
X346178Y593273D01*
X342403Y591709D01*
X338317Y591709D01*
G37*
%LPD*%
%LPC*%
G36*
X338317Y566309D02*
X338317Y566309D01*
X334542Y567873D01*
X331653Y570762D01*
X330089Y574537D01*
X330089Y578623D01*
X331653Y582398D01*
X334542Y585287D01*
X338317Y586851D01*
X342403Y586851D01*
X346178Y585287D01*
X349067Y582398D01*
X350631Y578623D01*
X350631Y574537D01*
X349067Y570762D01*
X346178Y567873D01*
X342403Y566309D01*
X338317Y566309D01*
G37*
%LPD*%
%LPC*%
G36*
X516117Y540909D02*
X516117Y540909D01*
X512342Y542473D01*
X509453Y545362D01*
X507889Y549137D01*
X507889Y553223D01*
X509453Y556998D01*
X512342Y559887D01*
X516117Y561451D01*
X520203Y561451D01*
X523978Y559887D01*
X526867Y556998D01*
X528431Y553223D01*
X528431Y549137D01*
X526867Y545362D01*
X523978Y542473D01*
X520203Y540909D01*
X516117Y540909D01*
G37*
%LPD*%
%LPC*%
G36*
X516117Y845709D02*
X516117Y845709D01*
X512342Y847273D01*
X509453Y850162D01*
X507889Y853937D01*
X507889Y858023D01*
X509453Y861798D01*
X512342Y864687D01*
X516117Y866251D01*
X520203Y866251D01*
X523978Y864687D01*
X526867Y861798D01*
X528431Y858023D01*
X528431Y853937D01*
X526867Y850162D01*
X523978Y847273D01*
X520203Y845709D01*
X516117Y845709D01*
G37*
%LPD*%
%LPC*%
G36*
X338317Y845709D02*
X338317Y845709D01*
X334542Y847273D01*
X331653Y850162D01*
X330089Y853937D01*
X330089Y858023D01*
X331653Y861798D01*
X334542Y864687D01*
X338317Y866251D01*
X342403Y866251D01*
X346178Y864687D01*
X349067Y861798D01*
X350631Y858023D01*
X350631Y853937D01*
X349067Y850162D01*
X346178Y847273D01*
X342403Y845709D01*
X338317Y845709D01*
G37*
%LPD*%
%LPC*%
G36*
X516117Y820309D02*
X516117Y820309D01*
X512342Y821873D01*
X509453Y824762D01*
X507889Y828537D01*
X507889Y832623D01*
X509453Y836398D01*
X512342Y839287D01*
X516117Y840851D01*
X520203Y840851D01*
X523978Y839287D01*
X526867Y836398D01*
X528431Y832623D01*
X528431Y828537D01*
X526867Y824762D01*
X523978Y821873D01*
X520203Y820309D01*
X516117Y820309D01*
G37*
%LPD*%
%LPC*%
G36*
X338317Y820309D02*
X338317Y820309D01*
X334542Y821873D01*
X331653Y824762D01*
X330089Y828537D01*
X330089Y832623D01*
X331653Y836398D01*
X334542Y839287D01*
X338317Y840851D01*
X342403Y840851D01*
X346178Y839287D01*
X349067Y836398D01*
X350631Y832623D01*
X350631Y828537D01*
X349067Y824762D01*
X346178Y821873D01*
X342403Y820309D01*
X338317Y820309D01*
G37*
%LPD*%
%LPC*%
G36*
X516117Y794909D02*
X516117Y794909D01*
X512342Y796473D01*
X509453Y799362D01*
X507889Y803137D01*
X507889Y807223D01*
X509453Y810998D01*
X512342Y813887D01*
X516117Y815451D01*
X520203Y815451D01*
X523978Y813887D01*
X526867Y810998D01*
X528431Y807223D01*
X528431Y803137D01*
X526867Y799362D01*
X523978Y796473D01*
X520203Y794909D01*
X516117Y794909D01*
G37*
%LPD*%
%LPC*%
G36*
X338317Y540909D02*
X338317Y540909D01*
X334542Y542473D01*
X331653Y545362D01*
X330089Y549137D01*
X330089Y553223D01*
X331653Y556998D01*
X334542Y559887D01*
X338317Y561451D01*
X342403Y561451D01*
X346178Y559887D01*
X349067Y556998D01*
X350631Y553223D01*
X350631Y549137D01*
X349067Y545362D01*
X346178Y542473D01*
X342403Y540909D01*
X338317Y540909D01*
G37*
%LPD*%
%LPC*%
G36*
X516117Y769509D02*
X516117Y769509D01*
X512342Y771073D01*
X509453Y773962D01*
X507889Y777737D01*
X507889Y781823D01*
X509453Y785598D01*
X512342Y788487D01*
X516117Y790051D01*
X520203Y790051D01*
X523978Y788487D01*
X526867Y785598D01*
X528431Y781823D01*
X528431Y777737D01*
X526867Y773962D01*
X523978Y771073D01*
X520203Y769509D01*
X516117Y769509D01*
G37*
%LPD*%
%LPC*%
G36*
X338317Y769509D02*
X338317Y769509D01*
X334542Y771073D01*
X331653Y773962D01*
X330089Y777737D01*
X330089Y781823D01*
X331653Y785598D01*
X334542Y788487D01*
X338317Y790051D01*
X342403Y790051D01*
X346178Y788487D01*
X349067Y785598D01*
X350631Y781823D01*
X350631Y777737D01*
X349067Y773962D01*
X346178Y771073D01*
X342403Y769509D01*
X338317Y769509D01*
G37*
%LPD*%
%LPC*%
G36*
X516117Y515509D02*
X516117Y515509D01*
X512342Y517073D01*
X509453Y519962D01*
X507889Y523737D01*
X507889Y527823D01*
X509453Y531598D01*
X512342Y534487D01*
X516117Y536051D01*
X520203Y536051D01*
X523978Y534487D01*
X526867Y531598D01*
X528431Y527823D01*
X528431Y523737D01*
X526867Y519962D01*
X523978Y517073D01*
X520203Y515509D01*
X516117Y515509D01*
G37*
%LPD*%
%LPC*%
G36*
X338317Y515509D02*
X338317Y515509D01*
X334542Y517073D01*
X331653Y519962D01*
X330089Y523737D01*
X330089Y527823D01*
X331653Y531598D01*
X334542Y534487D01*
X338317Y536051D01*
X342403Y536051D01*
X346178Y534487D01*
X349067Y531598D01*
X350631Y527823D01*
X350631Y523737D01*
X349067Y519962D01*
X346178Y517073D01*
X342403Y515509D01*
X338317Y515509D01*
G37*
%LPD*%
%LPC*%
G36*
X338317Y439309D02*
X338317Y439309D01*
X334542Y440873D01*
X331653Y443762D01*
X330089Y447537D01*
X330089Y451623D01*
X331653Y455398D01*
X334542Y458287D01*
X338317Y459851D01*
X342403Y459851D01*
X346178Y458287D01*
X349067Y455398D01*
X350631Y451623D01*
X350631Y447537D01*
X349067Y443762D01*
X346178Y440873D01*
X342403Y439309D01*
X338317Y439309D01*
G37*
%LPD*%
%LPC*%
G36*
X516117Y464709D02*
X516117Y464709D01*
X512342Y466273D01*
X509453Y469162D01*
X507889Y472937D01*
X507889Y477023D01*
X509453Y480798D01*
X512342Y483687D01*
X516117Y485251D01*
X520203Y485251D01*
X523978Y483687D01*
X526867Y480798D01*
X528431Y477023D01*
X528431Y472937D01*
X526867Y469162D01*
X523978Y466273D01*
X520203Y464709D01*
X516117Y464709D01*
G37*
%LPD*%
%LPC*%
G36*
X338317Y464709D02*
X338317Y464709D01*
X334542Y466273D01*
X331653Y469162D01*
X330089Y472937D01*
X330089Y477023D01*
X331653Y480798D01*
X334542Y483687D01*
X338317Y485251D01*
X342403Y485251D01*
X346178Y483687D01*
X349067Y480798D01*
X350631Y477023D01*
X350631Y472937D01*
X349067Y469162D01*
X346178Y466273D01*
X342403Y464709D01*
X338317Y464709D01*
G37*
%LPD*%
%LPC*%
G36*
X452617Y441609D02*
X452617Y441609D01*
X448842Y443173D01*
X445953Y446062D01*
X444389Y449837D01*
X444389Y453923D01*
X445953Y457698D01*
X448842Y460587D01*
X452617Y462151D01*
X456703Y462151D01*
X460478Y460587D01*
X463367Y457698D01*
X464931Y453923D01*
X464931Y449837D01*
X463367Y446062D01*
X460478Y443173D01*
X456703Y441609D01*
X452617Y441609D01*
G37*
%LPD*%
%LPC*%
G36*
X427217Y441609D02*
X427217Y441609D01*
X423442Y443173D01*
X420553Y446062D01*
X418989Y449837D01*
X418989Y453923D01*
X420553Y457698D01*
X423442Y460587D01*
X427217Y462151D01*
X431303Y462151D01*
X435078Y460587D01*
X437967Y457698D01*
X439531Y453923D01*
X439531Y449837D01*
X437967Y446062D01*
X435078Y443173D01*
X431303Y441609D01*
X427217Y441609D01*
G37*
%LPD*%
%LPC*%
G36*
X401817Y441609D02*
X401817Y441609D01*
X398042Y443173D01*
X395153Y446062D01*
X393589Y449837D01*
X393589Y453923D01*
X395153Y457698D01*
X398042Y460587D01*
X401817Y462151D01*
X405903Y462151D01*
X409678Y460587D01*
X412567Y457698D01*
X414131Y453923D01*
X414131Y449837D01*
X412567Y446062D01*
X409678Y443173D01*
X405903Y441609D01*
X401817Y441609D01*
G37*
%LPD*%
%LPC*%
G36*
X516117Y718709D02*
X516117Y718709D01*
X512342Y720273D01*
X509453Y723162D01*
X507889Y726937D01*
X507889Y731023D01*
X509453Y734798D01*
X512342Y737687D01*
X516117Y739251D01*
X520203Y739251D01*
X523978Y737687D01*
X526867Y734798D01*
X528431Y731023D01*
X528431Y726937D01*
X526867Y723162D01*
X523978Y720273D01*
X520203Y718709D01*
X516117Y718709D01*
G37*
%LPD*%
%LPC*%
G36*
X338317Y718709D02*
X338317Y718709D01*
X334542Y720273D01*
X331653Y723162D01*
X330089Y726937D01*
X330089Y731023D01*
X331653Y734798D01*
X334542Y737687D01*
X338317Y739251D01*
X342403Y739251D01*
X346178Y737687D01*
X349067Y734798D01*
X350631Y731023D01*
X350631Y726937D01*
X349067Y723162D01*
X346178Y720273D01*
X342403Y718709D01*
X338317Y718709D01*
G37*
%LPD*%
%LPC*%
G36*
X516117Y693309D02*
X516117Y693309D01*
X512342Y694873D01*
X509453Y697762D01*
X507889Y701537D01*
X507889Y705623D01*
X509453Y709398D01*
X512342Y712287D01*
X516117Y713851D01*
X520203Y713851D01*
X523978Y712287D01*
X526867Y709398D01*
X528431Y705623D01*
X528431Y701537D01*
X526867Y697762D01*
X523978Y694873D01*
X520203Y693309D01*
X516117Y693309D01*
G37*
%LPD*%
%LPC*%
G36*
X338317Y693309D02*
X338317Y693309D01*
X334542Y694873D01*
X331653Y697762D01*
X330089Y701537D01*
X330089Y705623D01*
X331653Y709398D01*
X334542Y712287D01*
X338317Y713851D01*
X342403Y713851D01*
X346178Y712287D01*
X349067Y709398D01*
X350631Y705623D01*
X350631Y701537D01*
X349067Y697762D01*
X346178Y694873D01*
X342403Y693309D01*
X338317Y693309D01*
G37*
%LPD*%
%LPC*%
G36*
X516117Y667909D02*
X516117Y667909D01*
X512342Y669473D01*
X509453Y672362D01*
X507889Y676137D01*
X507889Y680223D01*
X509453Y683998D01*
X512342Y686887D01*
X516117Y688451D01*
X520203Y688451D01*
X523978Y686887D01*
X526867Y683998D01*
X528431Y680223D01*
X528431Y676137D01*
X526867Y672362D01*
X523978Y669473D01*
X520203Y667909D01*
X516117Y667909D01*
G37*
%LPD*%
%LPC*%
G36*
X451620Y891079D02*
X451620Y891079D01*
X448128Y892526D01*
X445456Y895198D01*
X444009Y898690D01*
X444009Y902470D01*
X445456Y905962D01*
X448128Y908634D01*
X451620Y910081D01*
X455400Y910081D01*
X458892Y908634D01*
X461564Y905962D01*
X463011Y902470D01*
X463011Y898690D01*
X461564Y895198D01*
X458892Y892526D01*
X455400Y891079D01*
X451620Y891079D01*
G37*
%LPD*%
%LPC*%
G36*
X403120Y891079D02*
X403120Y891079D01*
X399628Y892526D01*
X396956Y895198D01*
X395509Y898690D01*
X395509Y902470D01*
X396956Y905962D01*
X399628Y908634D01*
X403120Y910081D01*
X406900Y910081D01*
X410392Y908634D01*
X413064Y905962D01*
X414511Y902470D01*
X414511Y898690D01*
X413064Y895198D01*
X410392Y892526D01*
X406900Y891079D01*
X403120Y891079D01*
G37*
%LPD*%
%LPC*%
G36*
X39624Y298754D02*
X39624Y298754D01*
X34594Y303784D01*
X34594Y310896D01*
X39624Y315926D01*
X46736Y315926D01*
X51766Y310896D01*
X51766Y303784D01*
X46736Y298754D01*
X39624Y298754D01*
G37*
%LPD*%
%LPC*%
G36*
X39624Y209854D02*
X39624Y209854D01*
X34594Y214884D01*
X34594Y221996D01*
X39624Y227026D01*
X46736Y227026D01*
X51766Y221996D01*
X51766Y214884D01*
X46736Y209854D01*
X39624Y209854D01*
G37*
%LPD*%
%LPC*%
G36*
X39624Y273354D02*
X39624Y273354D01*
X34594Y278384D01*
X34594Y285496D01*
X39624Y290526D01*
X46736Y290526D01*
X51766Y285496D01*
X51766Y278384D01*
X46736Y273354D01*
X39624Y273354D01*
G37*
%LPD*%
%LPC*%
G36*
X39624Y235254D02*
X39624Y235254D01*
X34594Y240284D01*
X34594Y247396D01*
X39624Y252426D01*
X46736Y252426D01*
X51766Y247396D01*
X51766Y240284D01*
X46736Y235254D01*
X39624Y235254D01*
G37*
%LPD*%
%LPC*%
G36*
X402844Y151434D02*
X402844Y151434D01*
X397814Y156464D01*
X397814Y163576D01*
X402844Y168606D01*
X409956Y168606D01*
X414986Y163576D01*
X414986Y156464D01*
X409956Y151434D01*
X402844Y151434D01*
G37*
%LPD*%
%LPC*%
G36*
X342859Y502879D02*
X342859Y502879D01*
X342859Y511669D01*
X343063Y511637D01*
X344790Y511075D01*
X346409Y510251D01*
X347878Y509183D01*
X349163Y507898D01*
X350231Y506429D01*
X351055Y504810D01*
X351617Y503083D01*
X351649Y502879D01*
X342859Y502879D01*
G37*
%LPD*%
%LPC*%
G36*
X342859Y883879D02*
X342859Y883879D01*
X342859Y892669D01*
X343063Y892637D01*
X344790Y892075D01*
X346409Y891251D01*
X347878Y890183D01*
X349163Y888898D01*
X350231Y887429D01*
X351055Y885810D01*
X351617Y884083D01*
X351649Y883879D01*
X342859Y883879D01*
G37*
%LPD*%
%LPC*%
G36*
X520659Y756879D02*
X520659Y756879D01*
X520659Y765669D01*
X520863Y765637D01*
X522590Y765075D01*
X524209Y764251D01*
X525678Y763183D01*
X526963Y761898D01*
X528031Y760429D01*
X528855Y758810D01*
X529417Y757083D01*
X529449Y756879D01*
X520659Y756879D01*
G37*
%LPD*%
%LPC*%
G36*
X520659Y883879D02*
X520659Y883879D01*
X520659Y892669D01*
X520863Y892637D01*
X522590Y892075D01*
X524209Y891251D01*
X525678Y890183D01*
X526963Y888898D01*
X528031Y887429D01*
X528855Y885810D01*
X529417Y884083D01*
X529449Y883879D01*
X520659Y883879D01*
G37*
%LPD*%
%LPC*%
G36*
X342859Y629879D02*
X342859Y629879D01*
X342859Y638669D01*
X343063Y638637D01*
X344790Y638075D01*
X346409Y637251D01*
X347878Y636183D01*
X349163Y634898D01*
X350231Y633429D01*
X351055Y631810D01*
X351617Y630083D01*
X351649Y629879D01*
X342859Y629879D01*
G37*
%LPD*%
%LPC*%
G36*
X520659Y629879D02*
X520659Y629879D01*
X520659Y638669D01*
X520863Y638637D01*
X522590Y638075D01*
X524209Y637251D01*
X525678Y636183D01*
X526963Y634898D01*
X528031Y633429D01*
X528855Y631810D01*
X529417Y630083D01*
X529449Y629879D01*
X520659Y629879D01*
G37*
%LPD*%
%LPC*%
G36*
X520659Y502879D02*
X520659Y502879D01*
X520659Y511669D01*
X520863Y511637D01*
X522590Y511075D01*
X524209Y510251D01*
X525678Y509183D01*
X526963Y507898D01*
X528031Y506429D01*
X528855Y504810D01*
X529417Y503083D01*
X529449Y502879D01*
X520659Y502879D01*
G37*
%LPD*%
%LPC*%
G36*
X342859Y756879D02*
X342859Y756879D01*
X342859Y765669D01*
X343063Y765637D01*
X344790Y765075D01*
X346409Y764251D01*
X347878Y763183D01*
X349163Y761898D01*
X350231Y760429D01*
X351055Y758810D01*
X351617Y757083D01*
X351649Y756879D01*
X342859Y756879D01*
G37*
%LPD*%
%LPC*%
G36*
X342859Y878881D02*
X342859Y878881D01*
X351649Y878881D01*
X351617Y878677D01*
X351055Y876950D01*
X350231Y875331D01*
X349163Y873862D01*
X347878Y872577D01*
X346409Y871509D01*
X344790Y870685D01*
X343063Y870123D01*
X342859Y870091D01*
X342859Y878881D01*
G37*
%LPD*%
%LPC*%
G36*
X329071Y756879D02*
X329071Y756879D01*
X329103Y757083D01*
X329665Y758810D01*
X330489Y760429D01*
X331557Y761898D01*
X332842Y763183D01*
X334311Y764251D01*
X335930Y765075D01*
X337657Y765637D01*
X337861Y765669D01*
X337861Y756879D01*
X329071Y756879D01*
G37*
%LPD*%
%LPC*%
G36*
X506871Y756879D02*
X506871Y756879D01*
X506903Y757083D01*
X507465Y758810D01*
X508289Y760429D01*
X509357Y761898D01*
X510642Y763183D01*
X512111Y764251D01*
X513730Y765075D01*
X515457Y765637D01*
X515661Y765669D01*
X515661Y756879D01*
X506871Y756879D01*
G37*
%LPD*%
%LPC*%
G36*
X520659Y751881D02*
X520659Y751881D01*
X529449Y751881D01*
X529417Y751677D01*
X528855Y749950D01*
X528031Y748331D01*
X526963Y746862D01*
X525678Y745577D01*
X524209Y744509D01*
X522590Y743685D01*
X520863Y743123D01*
X520659Y743091D01*
X520659Y751881D01*
G37*
%LPD*%
%LPC*%
G36*
X342859Y751881D02*
X342859Y751881D01*
X351649Y751881D01*
X351617Y751677D01*
X351055Y749950D01*
X350231Y748331D01*
X349163Y746862D01*
X347878Y745577D01*
X346409Y744509D01*
X344790Y743685D01*
X343063Y743123D01*
X342859Y743091D01*
X342859Y751881D01*
G37*
%LPD*%
%LPC*%
G36*
X506871Y502879D02*
X506871Y502879D01*
X506903Y503083D01*
X507465Y504810D01*
X508289Y506429D01*
X509357Y507898D01*
X510642Y509183D01*
X512111Y510251D01*
X513730Y511075D01*
X515457Y511637D01*
X515661Y511669D01*
X515661Y502879D01*
X506871Y502879D01*
G37*
%LPD*%
%LPC*%
G36*
X329071Y502879D02*
X329071Y502879D01*
X329103Y503083D01*
X329665Y504810D01*
X330489Y506429D01*
X331557Y507898D01*
X332842Y509183D01*
X334311Y510251D01*
X335930Y511075D01*
X337657Y511637D01*
X337861Y511669D01*
X337861Y502879D01*
X329071Y502879D01*
G37*
%LPD*%
%LPC*%
G36*
X520659Y497881D02*
X520659Y497881D01*
X529449Y497881D01*
X529417Y497677D01*
X528855Y495950D01*
X528031Y494331D01*
X526963Y492862D01*
X525678Y491577D01*
X524209Y490509D01*
X522590Y489685D01*
X520863Y489123D01*
X520659Y489091D01*
X520659Y497881D01*
G37*
%LPD*%
%LPC*%
G36*
X506871Y629879D02*
X506871Y629879D01*
X506903Y630083D01*
X507465Y631810D01*
X508289Y633429D01*
X509357Y634898D01*
X510642Y636183D01*
X512111Y637251D01*
X513730Y638075D01*
X515457Y638637D01*
X515661Y638669D01*
X515661Y629879D01*
X506871Y629879D01*
G37*
%LPD*%
%LPC*%
G36*
X342859Y497881D02*
X342859Y497881D01*
X351649Y497881D01*
X351617Y497677D01*
X351055Y495950D01*
X350231Y494331D01*
X349163Y492862D01*
X347878Y491577D01*
X346409Y490509D01*
X344790Y489685D01*
X343063Y489123D01*
X342859Y489091D01*
X342859Y497881D01*
G37*
%LPD*%
%LPC*%
G36*
X520659Y624881D02*
X520659Y624881D01*
X529449Y624881D01*
X529417Y624677D01*
X528855Y622950D01*
X528031Y621331D01*
X526963Y619862D01*
X525678Y618577D01*
X524209Y617509D01*
X522590Y616685D01*
X520863Y616123D01*
X520659Y616091D01*
X520659Y624881D01*
G37*
%LPD*%
%LPC*%
G36*
X342859Y624881D02*
X342859Y624881D01*
X351649Y624881D01*
X351617Y624677D01*
X351055Y622950D01*
X350231Y621331D01*
X349163Y619862D01*
X347878Y618577D01*
X346409Y617509D01*
X344790Y616685D01*
X343063Y616123D01*
X342859Y616091D01*
X342859Y624881D01*
G37*
%LPD*%
%LPC*%
G36*
X329071Y883879D02*
X329071Y883879D01*
X329103Y884083D01*
X329665Y885810D01*
X330489Y887429D01*
X331557Y888898D01*
X332842Y890183D01*
X334311Y891251D01*
X335930Y892075D01*
X337657Y892637D01*
X337861Y892669D01*
X337861Y883879D01*
X329071Y883879D01*
G37*
%LPD*%
%LPC*%
G36*
X506871Y883879D02*
X506871Y883879D01*
X506903Y884083D01*
X507465Y885810D01*
X508289Y887429D01*
X509357Y888898D01*
X510642Y890183D01*
X512111Y891251D01*
X513730Y892075D01*
X515457Y892637D01*
X515661Y892669D01*
X515661Y883879D01*
X506871Y883879D01*
G37*
%LPD*%
%LPC*%
G36*
X329071Y629879D02*
X329071Y629879D01*
X329103Y630083D01*
X329665Y631810D01*
X330489Y633429D01*
X331557Y634898D01*
X332842Y636183D01*
X334311Y637251D01*
X335930Y638075D01*
X337657Y638637D01*
X337861Y638669D01*
X337861Y629879D01*
X329071Y629879D01*
G37*
%LPD*%
%LPC*%
G36*
X520659Y878881D02*
X520659Y878881D01*
X529449Y878881D01*
X529417Y878677D01*
X528855Y876950D01*
X528031Y875331D01*
X526963Y873862D01*
X525678Y872577D01*
X524209Y871509D01*
X522590Y870685D01*
X520863Y870123D01*
X520659Y870091D01*
X520659Y878881D01*
G37*
%LPD*%
%LPC*%
G36*
X337657Y616123D02*
X337657Y616123D01*
X335930Y616685D01*
X334311Y617509D01*
X332842Y618577D01*
X331557Y619862D01*
X330489Y621331D01*
X329665Y622950D01*
X329103Y624677D01*
X329071Y624881D01*
X337861Y624881D01*
X337861Y616091D01*
X337657Y616123D01*
G37*
%LPD*%
%LPC*%
G36*
X515457Y870123D02*
X515457Y870123D01*
X513730Y870685D01*
X512111Y871509D01*
X510642Y872577D01*
X509357Y873862D01*
X508289Y875331D01*
X507465Y876950D01*
X506903Y878677D01*
X506871Y878881D01*
X515661Y878881D01*
X515661Y870091D01*
X515457Y870123D01*
G37*
%LPD*%
%LPC*%
G36*
X515457Y489123D02*
X515457Y489123D01*
X513730Y489685D01*
X512111Y490509D01*
X510642Y491577D01*
X509357Y492862D01*
X508289Y494331D01*
X507465Y495950D01*
X506903Y497677D01*
X506871Y497881D01*
X515661Y497881D01*
X515661Y489091D01*
X515457Y489123D01*
G37*
%LPD*%
%LPC*%
G36*
X337657Y870123D02*
X337657Y870123D01*
X335930Y870685D01*
X334311Y871509D01*
X332842Y872577D01*
X331557Y873862D01*
X330489Y875331D01*
X329665Y876950D01*
X329103Y878677D01*
X329071Y878881D01*
X337861Y878881D01*
X337861Y870091D01*
X337657Y870123D01*
G37*
%LPD*%
%LPC*%
G36*
X515457Y743123D02*
X515457Y743123D01*
X513730Y743685D01*
X512111Y744509D01*
X510642Y745577D01*
X509357Y746862D01*
X508289Y748331D01*
X507465Y749950D01*
X506903Y751677D01*
X506871Y751881D01*
X515661Y751881D01*
X515661Y743091D01*
X515457Y743123D01*
G37*
%LPD*%
%LPC*%
G36*
X337657Y743123D02*
X337657Y743123D01*
X335930Y743685D01*
X334311Y744509D01*
X332842Y745577D01*
X331557Y746862D01*
X330489Y748331D01*
X329665Y749950D01*
X329103Y751677D01*
X329071Y751881D01*
X337861Y751881D01*
X337861Y743091D01*
X337657Y743123D01*
G37*
%LPD*%
%LPC*%
G36*
X515457Y616123D02*
X515457Y616123D01*
X513730Y616685D01*
X512111Y617509D01*
X510642Y618577D01*
X509357Y619862D01*
X508289Y621331D01*
X507465Y622950D01*
X506903Y624677D01*
X506871Y624881D01*
X515661Y624881D01*
X515661Y616091D01*
X515457Y616123D01*
G37*
%LPD*%
%LPC*%
G36*
X337657Y489123D02*
X337657Y489123D01*
X335930Y489685D01*
X334311Y490509D01*
X332842Y491577D01*
X331557Y492862D01*
X330489Y494331D01*
X329665Y495950D01*
X329103Y497677D01*
X329071Y497881D01*
X337861Y497881D01*
X337861Y489091D01*
X337657Y489123D01*
G37*
%LPD*%
%LPC*%
G36*
X433831Y162051D02*
X433831Y162051D01*
X433831Y169876D01*
X435882Y169876D01*
X441656Y164102D01*
X441656Y162051D01*
X433831Y162051D01*
G37*
%LPD*%
%LPC*%
G36*
X421944Y162051D02*
X421944Y162051D01*
X421944Y164102D01*
X427718Y169876D01*
X429769Y169876D01*
X429769Y162051D01*
X421944Y162051D01*
G37*
%LPD*%
%LPC*%
G36*
X433831Y150164D02*
X433831Y150164D01*
X433831Y157989D01*
X441656Y157989D01*
X441656Y155938D01*
X435882Y150164D01*
X433831Y150164D01*
G37*
%LPD*%
%LPC*%
G36*
X427718Y150164D02*
X427718Y150164D01*
X421944Y155938D01*
X421944Y157989D01*
X429769Y157989D01*
X429769Y150164D01*
X427718Y150164D01*
G37*
%LPD*%
D10*
X43180Y243840D03*
X43180Y218440D03*
D11*
X431800Y160020D03*
X406400Y160020D03*
D12*
X43180Y281940D03*
X43180Y307340D03*
D13*
X340360Y932180D03*
X340360Y906780D03*
X340360Y779780D03*
X340360Y754380D03*
X340360Y881380D03*
X340360Y855980D03*
X340360Y805180D03*
X340360Y830580D03*
X340360Y728980D03*
X340360Y703580D03*
X340360Y678180D03*
X340360Y652780D03*
X340360Y627380D03*
X340360Y601980D03*
X340360Y576580D03*
X340360Y551180D03*
X340360Y525780D03*
X340360Y500380D03*
X340360Y474980D03*
X340360Y449580D03*
X518160Y449580D03*
X518160Y474980D03*
X518160Y500380D03*
X518160Y525780D03*
X518160Y551180D03*
X518160Y576580D03*
X518160Y601980D03*
X518160Y627380D03*
X518160Y652780D03*
X518160Y678180D03*
X518160Y703580D03*
X518160Y728980D03*
X518160Y754380D03*
X518160Y779780D03*
X518160Y805180D03*
X518160Y830580D03*
X518160Y855980D03*
X518160Y881380D03*
X518160Y906780D03*
X518160Y932180D03*
X403860Y451880D03*
X429260Y451880D03*
X454660Y451880D03*
D14*
X698500Y63500D03*
X63500Y63500D03*
X63500Y889000D03*
X698500Y889000D03*
M02*
